<svg width="100" height="100" viewBox="0 0 100 100" xmlns="http://www.w3.org/2000/svg">
  <defs>
    <linearGradient id="rainbowGradient" x1="0%" y1="0%" x2="100%" y2="100%">
      <stop offset="0%" style="stop-color:#ff0000">
        <animate attributeName="stop-color" values="#ff0000;#ff8800;#ffff00;#88ff00;#00ff00;#00ff88;#00ffff;#0088ff;#0000ff;#8800ff;#ff00ff;#ff0088;#ff0000" dur="3s" repeatCount="indefinite"/>
      </stop>
      <stop offset="50%" style="stop-color:#ffff00">
        <animate attributeName="stop-color" values="#ffff00;#88ff00;#00ff00;#00ff88;#00ffff;#0088ff;#0000ff;#8800ff;#ff00ff;#ff0088;#ff0000;#ff8800;#ffff00" dur="3s" repeatCount="indefinite"/>
      </stop>
      <stop offset="100%" style="stop-color:#0000ff">
        <animate attributeName="stop-color" values="#0000ff;#8800ff;#ff00ff;#ff0088;#ff0000;#ff8800;#ffff00;#88ff00;#00ff00;#00ff88;#00ffff;#0088ff;#0000ff" dur="3s" repeatCount="indefinite"/>
      </stop>
    </linearGradient>
  </defs>

  <!-- Group both background and X together for synchronized scaling -->
  <g transform="translate(0,0)">
    <!-- Rounded rainbow background -->
    <rect x="10" y="10" width="80" height="80" rx="20" ry="20" fill="url(#rainbowGradient)"/>
    
    <!-- X logo centered and scaled -->
    <g transform="translate(22, 23) scale(3.5)">
      <path d="M13.545 2.907a13.2 13.2 0 0 0-3.257-1.011.05.05 0 0 0-.052.025c-.141.25-.297.577-.406.833a12.2 12.2 0 0 0-3.658 0 8 8 0 0 0-.412-.833.05.05 0 0 0-.052-.025c-1.125.194-2.22.534-3.257 1.011a.04.04 0 0 0-.021.018C.356 6.024-.213 9.047.066 12.032q.003.022.021.037a13.3 13.3 0 0 0 3.995 2.02.05.05 0 0 0 .056-.019q.463-.63.818-1.329a.05.05 0 0 0-.01-.059l-.018-.011a9 9 0 0 1-1.248-.595.05.05 0 0 1-.02-.066l.015-.019q.127-.095.248-.195a.05.05 0 0 1 .051-.007c2.619 1.196 5.454 1.196 8.041 0a.05.05 0 0 1 .053.007q.121.1.248.195a.05.05 0 0 1-.004.085 8 8 0 0 1-1.249.594.05.05 0 0 0-.03.03.05.05 0 0 0 .003.041c.24.465.515.909.817 1.329a.05.05 0 0 0 .056.019 13.2 13.2 0 0 0 4.001-2.02.05.05 0 0 0 .021-.037c.334-3.451-.559-6.449-2.366-9.106a.03.03 0 0 0-.02-.019m-8.198 7.307c-.789 0-1.438-.724-1.438-1.612s.637-1.613 1.438-1.613c.807 0 1.45.73 1.438 1.613 0 .888-.637 1.612-1.438 1.612m5.316 0c-.788 0-1.438-.724-1.438-1.612s.637-1.613 1.438-1.613c.807 0 1.451.73 1.438 1.613 0 .888-.631 1.612-1.438 1.612" fill="white"/>
    </g>

    <!-- Animate the whole group -->
    <animateTransform attributeName="transform" type="scale" values="1;1.05;1" dur="1.8s" repeatCount="indefinite" additive="sum"/>
  </g>
</svg>
