<svg width="100" height="100" viewBox="0 0 100 100" xmlns="http://www.w3.org/2000/svg">
  <defs>
    <linearGradient id="rainbowGradient" x1="0%" y1="0%" x2="100%" y2="100%">
      <stop offset="0%" style="stop-color:#ff0000">
        <animate attributeName="stop-color" values="#ff0000;#ff8800;#ffff00;#88ff00;#00ff00;#00ff88;#00ffff;#0088ff;#0000ff;#8800ff;#ff00ff;#ff0088;#ff0000" dur="3s" repeatCount="indefinite"/>
      </stop>
      <stop offset="50%" style="stop-color:#ffff00">
        <animate attributeName="stop-color" values="#ffff00;#88ff00;#00ff00;#00ff88;#00ffff;#0088ff;#0000ff;#8800ff;#ff00ff;#ff0088;#ff0000;#ff8800;#ffff00" dur="3s" repeatCount="indefinite"/>
      </stop>
      <stop offset="100%" style="stop-color:#0000ff">
        <animate attributeName="stop-color" values="#0000ff;#8800ff;#ff00ff;#ff0088;#ff0000;#ff8800;#ffff00;#88ff00;#00ff00;#00ff88;#00ffff;#0088ff;#0000ff" dur="3s" repeatCount="indefinite"/>
      </stop>
    </linearGradient>
  </defs>

  <!-- Group both background and X together for synchronized scaling -->
  <g transform="translate(0,0)">
    <!-- Rounded rainbow background -->
    <rect x="10" y="10" width="80" height="80" rx="20" ry="20" fill="url(#rainbowGradient)"/>
    
    <!-- X logo centered and scaled -->
    <g transform="translate(17, 17) scale(2.8)">
      <path d="M8,2 L16,2 C19.3137085,2 22,4.6862915 22,8 L22,16 C22,19.3137085 19.3137085,22 16,22 L8,22 C4.6862915,22 2,19.3137085 2,16 L2,8 C2,4.6862915 4.6862915,2 8,2 Z M8,4 C5.790861,4 4,5.790861 4,8 L4,16 C4,18.209139 5.790861,20 8,20 L16,20 C18.209139,20 20,18.209139 20,16 L20,8 C20,5.790861 18.209139,4 16,4 L8,4 Z M12,17 C9.23857625,17 7,14.7614237 7,12 C7,9.23857625 9.23857625,7 12,7 C14.7614237,7 17,9.23857625 17,12 C17,14.7614237 14.7614237,17 12,17 Z M12,15 C13.6568542,15 15,13.6568542 15,12 C15,10.3431458 13.6568542,9 12,9 C10.3431458,9 9,10.3431458 9,12 C9,13.6568542 10.3431458,15 12,15 Z M17,8 C16.4477153,8 16,7.55228475 16,7 C16,6.44771525 16.4477153,6 17,6 C17.5522847,6 18,6.44771525 18,7 C18,7.55228475 17.5522847,8 17,8 Z" fill="white"/>
    </g>

    <!-- Animate the whole group -->
    <animateTransform attributeName="transform" type="scale" values="1;1.05;1" dur="1.8s" repeatCount="indefinite" additive="sum"/>
  </g>
</svg>
