<svg width="100" height="100" viewBox="0 0 100 100" xmlns="http://www.w3.org/2000/svg">
  <defs>
    <linearGradient id="rainbowGradient" x1="0%" y1="0%" x2="100%" y2="100%">
      <stop offset="0%" style="stop-color:#ff0000">
        <animate attributeName="stop-color" values="#ff0000;#ff8800;#ffff00;#88ff00;#00ff00;#00ff88;#00ffff;#0088ff;#0000ff;#8800ff;#ff00ff;#ff0088;#ff0000" dur="3s" repeatCount="indefinite"/>
      </stop>
      <stop offset="50%" style="stop-color:#ffff00">
        <animate attributeName="stop-color" values="#ffff00;#88ff00;#00ff00;#00ff88;#00ffff;#0088ff;#0000ff;#8800ff;#ff00ff;#ff0088;#ff0000;#ff8800;#ffff00" dur="3s" repeatCount="indefinite"/>
      </stop>
      <stop offset="100%" style="stop-color:#0000ff">
        <animate attributeName="stop-color" values="#0000ff;#8800ff;#ff00ff;#ff0088;#ff0000;#ff8800;#ffff00;#88ff00;#00ff00;#00ff88;#00ffff;#0088ff;#0000ff" dur="3s" repeatCount="indefinite"/>
      </stop>
    </linearGradient>
  </defs>

  <!-- Group both background and X together for synchronized scaling -->
  <g transform="translate(0,0)">
    <!-- Rounded rainbow background -->
    <rect x="10" y="10" width="80" height="80" rx="20" ry="20" fill="url(#rainbowGradient)"/>
    
    <!-- X logo centered and scaled -->
    <g transform="translate(26, 26) scale(2.5)">
      <path d="M19.959 11.719v7.379h-4.278v-6.885c0-1.73-.619-2.91-2.167-2.91-1.182 0-1.886.796-2.195 1.565-.113.275-.142.658-.142 1.043v7.187h-4.28s.058-11.66 0-12.869h4.28v1.824l-.028.042h.028v-.042c.568-.875 1.583-2.126 3.856-2.126 2.815 0 4.926 1.84 4.926 5.792zM2.421.026C.958.026 0 .986 0 2.249c0 1.235.93 2.224 2.365 2.224h.028c1.493 0 2.42-.989 2.42-2.224C4.787.986 3.887.026 2.422.026zM.254 19.098h4.278V6.229H.254v12.869z" fill="white"/>
    </g>

    <!-- Animate the whole group -->
    <animateTransform attributeName="transform" type="scale" values="1;1.05;1" dur="1.8s" repeatCount="indefinite" additive="sum"/>
  </g>
</svg>
